<?xml version="1.0" standalone="no"?><!DOCTYPE svg PUBLIC "-//W3C//DTD SVG 1.1//EN" "http://www.w3.org/Graphics/SVG/1.1/DTD/svg11.dtd"><svg t="1625731272649" class="icon" viewBox="0 0 1024 1024" version="1.1" xmlns="http://www.w3.org/2000/svg" p-id="2534" xmlns:xlink="http://www.w3.org/1999/xlink" width="200" height="200"><defs><style type="text/css"></style></defs><path d="M881.92 1018.24H142.08a94.08 94.08 0 0 1-93.44-93.44V184.96a94.08 94.08 0 0 1 93.44-93.44h739.84a94.08 94.08 0 0 1 93.44 93.44v739.84a94.08 94.08 0 0 1-93.44 93.44zM142.08 150.4a34.56 34.56 0 0 0-34.56 34.56v739.84a34.56 34.56 0 0 0 34.56 34.56h739.84a34.56 34.56 0 0 0 34.56-34.56V184.96a34.56 34.56 0 0 0-34.56-34.56z" fill="#323333" p-id="2535"></path><path d="M934.4 396.16H89.6a29.44 29.44 0 0 1-29.44-29.44 28.8 28.8 0 0 1 29.44-29.44h844.8a28.8 28.8 0 0 1 29.44 29.44 29.44 29.44 0 0 1-29.44 29.44zM341.12 268.16a29.44 29.44 0 0 1-29.44-29.44V33.92a29.44 29.44 0 0 1 29.44-29.44 28.8 28.8 0 0 1 29.44 29.44v204.8a28.8 28.8 0 0 1-29.44 29.44zM682.24 268.16a29.44 29.44 0 0 1-29.44-29.44V33.92a29.44 29.44 0 0 1 29.44-29.44 28.8 28.8 0 0 1 29.44 29.44v204.8a28.8 28.8 0 0 1-29.44 29.44z" fill="#323333" p-id="2536"></path><path d="M759.04 567.04m-59.52 0a59.52 59.52 0 1 0 119.04 0 59.52 59.52 0 1 0-119.04 0Z" fill="#323333" p-id="2537"></path><path d="M512 567.04m-59.52 0a59.52 59.52 0 1 0 119.04 0 59.52 59.52 0 1 0-119.04 0Z" fill="#323333" p-id="2538"></path><path d="M264.96 567.04m-59.52 0a59.52 59.52 0 1 0 119.04 0 59.52 59.52 0 1 0-119.04 0Z" fill="#323333" p-id="2539"></path><path d="M512 786.56m-59.52 0a59.52 59.52 0 1 0 119.04 0 59.52 59.52 0 1 0-119.04 0Z" fill="#323333" p-id="2540"></path><path d="M264.96 786.56m-59.52 0a59.52 59.52 0 1 0 119.04 0 59.52 59.52 0 1 0-119.04 0Z" fill="#323333" p-id="2541"></path></svg>