<?xml version="1.0" standalone="no"?><!DOCTYPE svg PUBLIC "-//W3C//DTD SVG 1.1//EN" "http://www.w3.org/Graphics/SVG/1.1/DTD/svg11.dtd"><svg t="1623226811365" class="icon" viewBox="0 0 1024 1024" version="1.1" xmlns="http://www.w3.org/2000/svg" p-id="10005" xmlns:xlink="http://www.w3.org/1999/xlink" width="200" height="200"><defs><style type="text/css"></style></defs><path d="M722.832 808.648c-59.376 0-107.704 48.296-107.704 107.672 0 59.384 48.328 107.68 107.704 107.68 59.384 0 107.68-48.296 107.68-107.68-0.008-59.376-48.304-107.672-107.68-107.672z m0 154.032a46.424 46.424 0 0 1-46.384-46.36c0-25.568 20.816-46.352 46.384-46.352s46.352 20.784 46.352 46.352a46.4 46.4 0 0 1-46.352 46.36zM187.592 808.648c-59.408 0-107.736 48.296-107.736 107.672 0 59.384 48.328 107.68 107.736 107.68 59.344 0 107.648-48.296 107.648-107.68 0-59.376-48.296-107.672-107.648-107.672z m0 154.032c-25.584 0-46.408-20.784-46.408-46.36 0-25.568 20.824-46.352 46.408-46.352a46.384 46.384 0 0 1 46.328 46.352 46.392 46.392 0 0 1-46.328 46.36zM976.296 97.784h-77.008a30.696 30.696 0 0 0-28.96 20.568L776.616 387.088H522.064L347.248 64.816a354.656 354.656 0 0 1 18.36-4.04 30.672 30.672 0 0 0 24.408-35.84c-3.144-16.624-18.896-27.488-35.84-24.408C158.824 37.536 17.04 208.928 17.04 408.024c0 1.664 0.232 3.272 0.496 4.864-0.256 1.6-0.496 3.2-0.496 4.864 0 204.104 192.968 397.088 397.08 397.088 158.256 0 309.76-116.056 369.864-263.328 0.424-0.912 0.88-1.808 1.216-2.776l0.176-0.504a383.952 383.952 0 0 0 9.872-28.32l125.8-360.808h55.24c16.952 0 30.664-13.712 30.664-30.664s-13.704-30.656-30.656-30.656z m-687.904-12.888l163.936 302.192H79.056c7.864-133.368 90.248-249.352 209.336-302.192zM414.12 753.52c-159.208 0-315.632-146.816-333.976-305.112h667.928a293.056 293.056 0 0 1-11.856 54.544l-6.672 19.144C680.184 649.464 548.152 753.52 414.12 753.52z" fill="#838384" p-id="10006"></path></svg>