<?xml version="1.0" standalone="no"?><!DOCTYPE svg PUBLIC "-//W3C//DTD SVG 1.1//EN" "http://www.w3.org/Graphics/SVG/1.1/DTD/svg11.dtd"><svg t="1623223917842" class="icon" viewBox="0 0 1024 1024" version="1.1" xmlns="http://www.w3.org/2000/svg" p-id="14670" xmlns:xlink="http://www.w3.org/1999/xlink" width="200" height="200"><defs><style type="text/css"></style></defs><path d="M709.05 895.26H342.64c-32 0-58.37-26.02-58.37-58.37V250.34c0-32.35 26.02-58.37 58.37-58.37h366.77c32 0 58.37 26.02 58.37 58.37v586.55c-0.35 32.35-26.37 58.37-58.73 58.37zM342.64 235.22c-8.44 0-15.12 6.68-15.12 15.12v586.55c0 8.44 6.68 15.12 15.12 15.12h366.77c8.44 0 15.12-6.68 15.12-15.12V250.34c0-8.44-6.68-15.12-15.12-15.12H342.64z m0 0" p-id="14671"></path><path d="M745.98 723.31H305.71c-11.96 0-21.8-9.85-21.8-21.8 0-11.96 9.85-21.81 21.8-21.81h439.91c11.95 0 21.8 9.85 21.8 21.81 0.01 11.95-9.49 21.8-21.44 21.8z m0 0M489.27 785.9c0 20.2 16.37 36.57 36.57 36.57s36.57-16.38 36.57-36.57c0-13.06-6.97-25.14-18.28-31.67a36.583 36.583 0 0 0-36.57 0 36.566 36.566 0 0 0-18.29 31.67z m0 0" p-id="14672"></path></svg>