<?xml version="1.0" standalone="no"?><!DOCTYPE svg PUBLIC "-//W3C//DTD SVG 1.1//EN" "http://www.w3.org/Graphics/SVG/1.1/DTD/svg11.dtd"><svg t="1623228673615" class="icon" viewBox="0 0 1024 1024" version="1.1" xmlns="http://www.w3.org/2000/svg" p-id="26129" xmlns:xlink="http://www.w3.org/1999/xlink" width="200" height="200"><defs><style type="text/css"></style></defs><path d="M637.408 249.674667h166.282667v47.114666H637.408v-47.114666z m0 63.424h166.282667v47.114666H637.408v-47.114666z" p-id="26130"></path><path d="M720.810667 288.192l-81.685334-78.56 32.661334-33.952 48.501333 46.645333 46.741333-46.389333 33.205334 33.429333z" p-id="26131"></path><path d="M697.002667 255.253333h47.104v152.64h-47.104z" p-id="26132"></path><path d="M720.554667 511.573333c-123.434667 0-223.861333-100.416-223.861334-223.850666 0-123.445333 100.426667-223.850667 223.861334-223.850667 123.424 0 223.84 100.416 223.84 223.850667 0 123.424-100.416 223.861333-223.84 223.861333z m0-400.597333c-97.461333 0-176.746667 79.285333-176.746667 176.746667s79.296 176.746667 176.746667 176.746666c97.44 0 176.736-79.296 176.736-176.746666s-79.285333-176.746667-176.746667-176.746667z" p-id="26133"></path><path d="M709.493333 941.12H158.602667a70.752 70.752 0 0 1-70.677334-70.677333V243.786667a70.752 70.752 0 0 1 70.677334-70.666667H580.8l-17.546667 34.293333a174.730667 174.730667 0 0 0-19.466666 80.309334c0 97.461333 79.285333 176.746667 176.746666 176.746666 10.208 0 20.629333-1.002667 31.84-3.050666l27.776-5.056v414.058666a70.741333 70.741333 0 0 1-70.666666 70.688zM158.602667 220.224a23.573333 23.573333 0 0 0-23.562667 23.552v626.656a23.573333 23.573333 0 0 0 23.562667 23.562667h550.890666c12.992 0 23.552-10.570667 23.552-23.573334V511.210667c-129.002667 7.637333-236.352-95.893333-236.352-223.477334 0-23.168 3.509333-45.738667 10.453334-67.488H158.613333z" p-id="26134"></path><path d="M241.546667 377.749333h201.173333v47.114667h-201.173333v-47.114667z m0 155.808H628.266667v47.114667H241.546667V533.546667z m0 155.797334H628.266667v47.114666H241.546667v-47.104z" p-id="26135"></path></svg>