<?xml version="1.0" standalone="no"?><!DOCTYPE svg PUBLIC "-//W3C//DTD SVG 1.1//EN" "http://www.w3.org/Graphics/SVG/1.1/DTD/svg11.dtd"><svg t="1623223430262" class="icon" viewBox="0 0 1024 1024" version="1.1" xmlns="http://www.w3.org/2000/svg" p-id="9728" xmlns:xlink="http://www.w3.org/1999/xlink" width="200" height="200"><defs><style type="text/css"></style></defs><path d="M728.064 436.224c16.49777778 0 29.92355555-13.42577778 29.92355555-29.92355555 0-16.384-13.53955555-29.92355555-29.92355555-29.92355556H561.37955555l86.016-85.67466667c11.60533333-11.60533333 11.60533333-30.60622222 0-42.21155555-11.71911111-11.60533333-30.72-11.60533333-42.4391111 0L512 341.21955555l-92.95644445-92.72888888c-11.60533333-11.60533333-30.72-11.60533333-42.4391111 0-11.60533333 11.60533333-11.60533333 30.60622222 0 42.21155555l86.016 85.67466667H295.936c-16.49777778 0-29.92355555 13.42577778-29.92355555 29.92355556s13.53955555 29.92355555 29.92355555 29.92355555h186.02666667v113.09511111h-128.56888889c-16.49777778 0-29.92355555 13.42577778-29.92355556 29.92355556 0 16.384 13.53955555 29.92355555 29.92355556 29.92355555h128.56888889v221.63911111c0 14.44977778 11.83288889 26.16888889 26.28266666 26.16888889h7.39555556c14.44977778 0 26.28266667-11.83288889 26.28266666-26.16888889V609.05244445h128.5688889c16.49777778 0 29.92355555-13.42577778 29.92355555-29.92355556 0-16.384-13.53955555-29.92355555-29.92355555-29.92355556h-128.5688889v-113.09511111h186.14044445z" fill="#707070" p-id="9729"></path><path d="M929.22311111 921.6l-99.66933333-99.66933333c-8.87466667-8.87466667-23.21066667-8.87466667-32.08533333 0-8.87466667 8.87466667-8.87466667 23.21066667 0 32.08533333l62.12266666 62.12266667H512c-222.89066667 0-404.13866667-181.248-404.13866667-404.13866667 0-222.89066667 181.248-404.13866667 404.13866667-404.13866667S916.13866667 289.10933333 916.13866667 512c0 73.27288889-19.79733333 144.95288889-57.23022222 207.41688889-6.48533333 10.80888889-2.95822222 24.80355555 7.85066666 31.17511111 10.80888889 6.48533333 24.80355555 2.95822222 31.17511111-7.85066667 41.64266667-69.51822222 63.71555555-149.27644445 63.71555556-230.74133333 0-60.64355555-11.94666667-119.58044445-35.38488889-174.99022222-22.64177778-53.58933333-55.06844445-101.60355555-96.36977778-142.90488889-41.30133333-41.30133333-89.42933333-73.728-142.90488889-96.36977778-55.40977778-23.43822222-114.34666667-35.38488889-174.99022222-35.38488889s-119.58044445 11.94666667-174.99022222 35.38488889c-53.58933333 22.64177778-101.60355555 55.06844445-142.90488889 96.36977778-41.30133333 41.30133333-73.728 89.31555555-96.36977778 142.90488889-23.43822222 55.40977778-35.38488889 114.34666667-35.38488889 174.99022222 0 60.64355555 11.94666667 119.58044445 35.38488889 174.99022222 22.64177778 53.58933333 55.06844445 101.60355555 96.36977778 142.90488889s89.42933333 73.728 142.90488889 96.36977778c55.40977778 23.43822222 114.34666667 35.38488889 174.99022222 35.38488889 0.68266667 0 1.47911111 0 2.16177778-0.11377778h399.24622222c4.77866667 0.22755555 9.67111111-1.024 13.88088889-3.86844445 0.11377778-0.11377778 0.22755555-0.22755555 0.45511111-0.34133333 0.45511111-0.34133333 0.91022222-0.56888889 1.25155555-0.91022222 5.12-4.20977778 8.30577778-10.46755555 8.30577778-17.52177778 0-6.94044445-3.18577778-13.08444445-8.07822222-17.29422222z" fill="#707070" p-id="9730"></path></svg>