<?xml version="1.0" standalone="no"?><!DOCTYPE svg PUBLIC "-//W3C//DTD SVG 1.1//EN" "http://www.w3.org/Graphics/SVG/1.1/DTD/svg11.dtd"><svg t="1626862954616" class="icon" viewBox="0 0 1024 1024" version="1.1" xmlns="http://www.w3.org/2000/svg" p-id="2045" xmlns:xlink="http://www.w3.org/1999/xlink" width="200" height="200"><defs><style type="text/css">@font-face { font-family: feedback-iconfont; src: url("//at.alicdn.com/t/font_1031158_1uhr8ri0pk5.eot?#iefix") format("embedded-opentype"), url("//at.alicdn.com/t/font_1031158_1uhr8ri0pk5.woff2") format("woff2"), url("//at.alicdn.com/t/font_1031158_1uhr8ri0pk5.woff") format("woff"), url("//at.alicdn.com/t/font_1031158_1uhr8ri0pk5.ttf") format("truetype"), url("//at.alicdn.com/t/font_1031158_1uhr8ri0pk5.svg#iconfont") format("svg"); }
</style></defs><path d="M488.448 130.432l-0.085333 4.352a42.666667 42.666667 0 0 1-39.125334 41.472c-5.205333 0.426667-9.002667 0.853333-11.434666 1.28a374.144 374.144 0 0 0-175.658667 79.829333C200.874667 307.626667 161.152 372.053333 142.165333 449.024c-20.266667 83.072-11.648 163.498667 25.472 240.085333 48.341333 99.498667 126.848 165.674667 233.856 191.658667 131.626667 32 248.149333-1.28 343.893334-97.792 54.144-54.613333 85.333333-119.765333 96.64-193.536 0.512-3.498667 1.066667-7.978667 1.664-13.44a42.666667 42.666667 0 0 1 42.410666-38.314667h4.522667a42.112 42.112 0 0 1 41.984 45.653334 216.106667 216.106667 0 0 1-1.024 9.642666 427.349333 427.349333 0 0 1-16.170667 72.32c-28.885333 93.44-82.389333 169.6-160.938666 228.010667-162.688 121.130667-375.850667 111.573333-522.965334 6.058667C54.997333 773.034667 4.096 554.581333 70.954667 376.32a445.610667 445.610667 0 0 1 373.589333-287.402667 40.576 40.576 0 0 1 43.946667 41.472z m476.586667 340.48l-368.554667 0.426667a42.666667 42.666667 0 0 1-42.666667-42.666667v-363.093333A22.954667 22.954667 0 0 1 577.706667 42.666667c214.229333 8.661333 400.042667 205.226667 403.626666 411.733333a16.256 16.256 0 0 1-16.256 16.512z m-326.229334-333.226667v246.058667h245.845334c-41.045333-123.477333-121.898667-204.928-245.845334-246.058667z" p-id="2046"></path></svg>