<?xml version="1.0" standalone="no"?><!DOCTYPE svg PUBLIC "-//W3C//DTD SVG 1.1//EN" "http://www.w3.org/Graphics/SVG/1.1/DTD/svg11.dtd"><svg t="1623228857101" class="icon" viewBox="0 0 1024 1024" version="1.1" xmlns="http://www.w3.org/2000/svg" p-id="3229" xmlns:xlink="http://www.w3.org/1999/xlink" width="200" height="200"><defs><style type="text/css"></style></defs><path d="M695.713 158c88.243 0 159.516 72.866 160.933 162.806l0.021 2.73v90.894c0 16.507-13.393 29.889-29.914 29.889-16.286 0-29.531-13.002-29.907-29.183l-0.008-0.706v-90.893c0-58.056-44.61-104.816-99.46-105.746l-1.665-0.014h-439.76c-55.051 0-100.213 46.18-101.11 104.004l-0.014 1.756v452.926c0 58.056 44.611 104.816 99.46 105.746l1.665 0.014h439.76c55.051 0 100.213-46.18 101.11-104.004l0.014-2.277c0-16.507 13.393-29.888 29.915-29.888 16.285 0 29.53 13.001 29.906 29.183l0.008 0.705v0.521c0 90.28-70.39 164.048-158.285 165.515l-2.669 0.022h-439.76c-88.242 0-159.515-72.866-160.932-162.806l-0.021-2.73V323.536c0-90.28 70.39-164.048 158.285-165.515l2.669-0.022h439.76zM364.406 355.281l87.504 87.428 86.719-86.643c11.576-11.53 30.232-11.645 41.95-0.346l0.353 0.346c0.026-0.01 0.032-0.004 0.039 0.002 11.554 11.565 11.662 30.235 0.31 41.915l-0.347 0.352-86.072 85.996h77.644c16.507 0 29.889 13.382 29.889 29.89 0 16.506-13.382 29.888-29.889 29.888l-88.619-0.001v45.983h120.835c16.507 0 29.888 13.382 29.888 29.889 0 16.507-13.381 29.888-29.888 29.888H483.887v73.252c0 16.348-13.12 29.632-29.405 29.896l-0.495 0.004h-0.028c-16.349 0-29.632-13.12-29.896-29.406l-0.004-0.494-0.001-73.252H303.225c-16.507 0-29.889-13.381-29.889-29.888s13.382-29.889 29.889-29.889h120.833v-45.983H335.44c-16.507 0-29.889-13.38-29.889-29.888 0-16.507 13.382-29.888 29.889-29.888l73.517-0.001-86.857-86.782c-11.7-11.653-11.709-30.585-0.037-42.266 0.006-0.007 0.012-0.013 0.037 0l0.003-0.003c11.693-11.645 30.61-11.645 42.303 0.001z m418.646 143.393c9.746-9.738 25.538-9.738 35.284 0l0.015 0.015c9.727 9.735 9.72 25.511-0.015 35.238l-71.334 71.272 71.334 71.273 0.29 0.294c9.444 9.748 9.354 25.307-0.275 34.944l-0.015 0.015c-9.746 9.738-25.538 9.738-35.284 0l-88.209-88.133-0.341-0.347c-4.83-5.015-7.148-11.555-6.953-18.033v-0.025c-0.2-6.629 2.232-13.323 7.294-18.38z m117.357 0c9.746-9.738 25.538-9.738 35.284 0l0.015 0.015c9.726 9.735 9.72 25.511-0.015 35.238l-71.334 71.272 71.334 71.273 0.289 0.294c9.445 9.748 9.355 25.307-0.274 34.944l-0.015 0.015c-9.746 9.738-25.538 9.738-35.284 0l-88.21-88.133-0.34-0.347c-4.83-5.015-7.149-11.555-6.954-18.033v-0.025c-0.2-6.629 2.233-13.323 7.295-18.38z" fill="#333333" p-id="3230"></path></svg>