<?xml version="1.0" standalone="no"?><!DOCTYPE svg PUBLIC "-//W3C//DTD SVG 1.1//EN" "http://www.w3.org/Graphics/SVG/1.1/DTD/svg11.dtd"><svg t="1623226655380" class="icon" viewBox="0 0 1024 1024" version="1.1" xmlns="http://www.w3.org/2000/svg" p-id="6079" xmlns:xlink="http://www.w3.org/1999/xlink" width="200" height="200"><defs><style type="text/css"></style></defs><path d="M869.543184 122.399347c-44.617143-26.017959-82.902204-39.601633-115.92098-39.936l-6.394775 0.041796c-57.385796 1.379265-112.660898 28.692898-150.820572 74.250449l-313.260408 373.989877-95.838041-34.126367a31.346939 31.346939 0 0 0-32.809796 7.460571L61.042939 598.517551l-1.818123 1.985306a31.346939 31.346939 0 0 0 13.123919 49.444572L279.614694 727.24898l77.406041 207.307755a31.346939 31.346939 0 0 0 51.408979 11.326694l94.41698-93.476572 2.048-2.215184a31.346939 31.346939 0 0 0 5.433469-30.573714l-36.048979-101.146122 372.192653-311.672164c4.576653-3.824327 8.986122-7.857633 13.165714-12.058122 38.494041-38.473143 58.765061-90.759837 58.054531-144.864653-0.459755-34.356245-12.852245-72.724898-36.487837-115.565714a31.346939 31.346939 0 0 0-11.661061-11.932735z m-39.141878 49.841633l3.009306 5.893224c14.273306 28.630204 21.315918 52.934531 21.587592 72.59951 0.501551 37.532735-13.437388 73.456327-39.685224 99.683266-2.904816 2.925714-5.93502 5.705143-9.090613 8.359183l-388.91102 325.694694-2.215184 2.048a31.346939 31.346939 0 0 0-7.188898 32.517225l36.655021 102.838857-45.766531 45.348571-65.452408-175.250286-1.358367-3.113795a31.346939 31.346939 0 0 0-17.052735-15.297307L139.702857 608.130612l45.348572-45.76653 97.593469 34.795102a31.346939 31.346939 0 0 0 34.565224-9.404082l327.262041-390.750041c27.710694-33.081469 67.939265-52.244898 108.523102-51.847837 17.846857 0.167184 42.276571 8.129306 72.557715 24.450613l4.848326 2.633143z" fill="#666666" p-id="6080"></path><path d="M770.612245 460.674612L853.263673 779.493878a31.346939 31.346939 0 0 1-5.01551 26.331428l-1.964408 2.424163-97.781551 109.421715a31.346939 31.346939 0 0 1-50.99102-6.081306l-1.191184-2.445062-133.01551-310.292898 57.615673-24.701387 113.643102 265.027918 53.791347-60.186122-78.450939-302.539756 60.687674-15.757061zM554.527347 244.610612L235.749878 161.959184a31.346939 31.346939 0 0 0-26.331429 5.01551l-2.445061 1.964408L97.593469 266.657959a31.346939 31.346939 0 0 0 6.081307 51.011919l2.445061 1.191183 310.292898 133.01551 24.701387-57.615673-265.027918-113.643102 60.20702-53.812245 302.518858 78.471837 15.736163-60.687674z" fill="#666666" p-id="6081"></path></svg>